# xmcd
#
# Track frame offsets: 
#        150
#        12900
#        26187
#        39137
#        50880
#        62420
#        74705
#        87612
#        101940
#        114500
#        127735
#        142537
#        156797
#        169007
#        183422
#        196740
#        210580
#        224687
#        237712
#        249980
#        261872
#        273970
#        287285
#        304515
#        319065
#
# Disc length: 4412 seconds
#
# Revision: 9
# Processed by: cddbd v1.5.2PL0 Copyright (c) Steve Scherf et al.
# Submitted via: ExactAudioCopyFreeDBPlugin 1.0
#
DISCID=68113a19
DTITLE=Various Artist - Chess Blues [disc 1] 1947-1952
DYEAR=1992
DGENRE=Blues
TTITLE0=Clarence Samuels - Lollypop Mama
TTITLE1=Andrew Tibbs - Bilbo is Dead
TTITLE2=Sunnyland Slim - Johnson Machine Gun
TTITLE3=Sunnyland Slim - Fly Right, Little Girl
TTITLE4=Muddy Waters - Little Anna Mae
TTITLE5=Muddy Waters - I Can't Be Satisfied
TTITLE6=Robert Nighthawk - My Sweet Lovin' Woman
TTITLE7=Muddy Waters - I Feel Like Going Home
TTITLE8=Sunnyland Slim - She Ain't Nowhere
TTITLE9=St. Louis Jimmy - Florida Hurricane
TTITLE10=Forest City Joe - Memory of Sonny Boy
TTITLE11=Forrest Sykes - Tonky Boogie
TTITLE12=Laura Rucker - Cryin' the Blues
TTITLE13=Baby Face Leroy - My Head Can't Rest Anymore
TTITLE14=Little Johnny Jones - Big Town Playboy
TTITLE15=Robert Nighthawk - Sweet Black Angel
TTITLE16=Muddy Waters - Rollin' Stone
TTITLE17=Jimmy Rogers - Luedella
TTITLE18=Memphis Slim - Mother Earth
TTITLE19=Dr. Isaiah Ross - Dr. Ross' Boogie
TTITLE20=Johnny Shines - Joliet Blues
TTITLE21=Howlin' Wolf - Moanin' at Midnight
TTITLE22=Muddy Waters - All Night Long [alternate]
TTITLE23=Arbee Stidham - Mr. Commissioner [alternate]
TTITLE24=Howlin' Wolf - Gettin' Old and Grey
EXTD=ID3G:   0
EXTT0=
EXTT1=
EXTT2=
EXTT3=
EXTT4=
EXTT5=
EXTT6=
EXTT7=
EXTT8=
EXTT9=
EXTT10=
EXTT11=
EXTT12=
EXTT13=
EXTT14=
EXTT15=
EXTT16=
EXTT17=
EXTT18=
EXTT19=
EXTT20=
EXTT21=
EXTT22=
EXTT23=
EXTT24=
PLAYORDER=
